Coordinates
version=1
nRows=17
nColumns=40
inDegrees=yes

Units are S.I. units (second, meters, Newtons, ...)
If the header above contains a line with 'inDegrees', this indicates whether rotational values are in degrees (yes) or radians (no).

endheader
time	pelvis_tilt	pelvis_list	pelvis_rotation	pelvis_tx	pelvis_ty	pelvis_tz	hip_flexion_r	hip_adduction_r	hip_rotation_r	knee_angle_r	knee_angle_r_beta	ankle_angle_r	subtalar_angle_r	mtp_angle_r	hip_flexion_l	hip_adduction_l	hip_rotation_l	knee_angle_l	knee_angle_l_beta	ankle_angle_l	subtalar_angle_l	mtp_angle_l	lumbar_extension	lumbar_bending	lumbar_rotation	arm_flex_r	arm_add_r	arm_rot_r	elbow_flex_r	pro_sup_r	wrist_flex_r	wrist_dev_r	arm_flex_l	arm_add_l	arm_rot_l	elbow_flex_l	pro_sup_l	wrist_flex_l	wrist_dev_l
      4.64000000	     -5.54412250	     -2.95765740	    -10.43310813	     -2.20396788	      0.93161089	      0.29007171	     22.89660529	      4.28472846	     -2.97681622	     44.50682400	      0.77679062	     24.99015582	      0.00000000	      0.00000000	     17.29500419	     -6.05374085	     -4.73408622	    115.38841705	      2.01390780	     15.08726036	      0.00000000	      0.00000000	    -32.34748345	      4.60567308	     17.59260842	      1.00210217	    -28.96354697	      0.69867356	     97.29366411	     87.85122551	      0.00000000	      0.00000000	     -9.01057480	    -28.01518533	     11.83591858	     89.25229010	      1.38429340	      0.00000000	      0.00000000
      4.64500000	     -5.81083325	     -2.51473990	    -10.61479275	     -2.17721963	      0.93058728	      0.29120226	     21.50332929	      3.65965053	     -2.59359135	     44.80760382	      0.78204022	     26.24196128	      0.00000000	      0.00000000	     20.80576228	     -6.02228433	     -4.16084960	    117.62166292	      2.05288529	     15.80209797	      0.00000000	      0.00000000	    -31.90539180	      3.91259944	     18.27650851	      3.47764392	    -28.27624980	      1.51178232	     97.77645812	     87.93248026	      0.00000000	      0.00000000	     -9.84476739	    -28.26126106	     11.46822959	     87.36684182	      1.38541309	      0.00000000	      0.00000000
      4.65000000	     -6.09952486	     -2.06130562	    -10.73272805	     -2.15021607	      0.92967760	      0.29224375	     19.98168796	      2.99419617	     -2.24026029	     44.79323005	      0.78178935	     27.23784391	      0.00000000	      0.00000000	     24.38994045	     -5.94332917	     -3.54238322	    119.50837755	      2.08581467	     16.36107275	      0.00000000	      0.00000000	    -31.39049221	      3.23388651	     18.85598046	      5.84793477	    -27.59260226	      2.30229972	     98.40552506	     87.94991509	      0.00000000	      0.00000000	    -10.82424637	    -28.55881410	     10.97334691	     85.77644637	      1.38230943	      0.00000000	      0.00000000
      4.65500000	     -6.39684358	     -1.60425910	    -10.78630393	     -2.12288808	      0.92888280	      0.29321303	     18.31904401	      2.29997595	     -1.93220385	     44.47560918	      0.77624582	     27.99035148	      0.00000000	      0.00000000	     28.00342743	     -5.81431041	     -2.90170438	    121.04023517	      2.11255063	     16.79129871	      0.00000000	      0.00000000	    -30.81040849	      2.57569436	     19.29041769	      8.12770067	    -26.94254926	      3.17085457	     99.16070480	     87.97821172	      0.00000000	      0.00000000	    -12.04140800	    -28.93919376	     10.30268391	     84.57303503	      1.37467172	      0.00000000	      0.00000000
      4.66000000	     -6.68944890	     -1.14101016	    -10.77106401	     -2.09517884	      0.92823593	      0.29409778	     16.50255125	      1.57451883	     -1.69009378	     43.85584624	      0.76542891	     28.45325040	      0.00000000	      0.00000000	     31.60223449	     -5.61812256	     -2.26964922	    122.20622801	      2.13290105	     17.12494430	      0.00000000	      0.00000000	    -30.17563407	      1.93630293	     19.58096718	     10.28310058	    -26.31636977	      4.07221177	    100.04958205	     87.98350289	      0.00000000	      0.00000000	    -13.51371169	    -29.35871908	      9.41318364	     83.75344811	      1.35561153	      0.00000000	      0.00000000
      4.66500000	     -6.94627708	     -0.67418652	    -10.66858950	     -2.06703512	      0.92778367	      0.29489449	     14.49299892	      0.81645453	     -1.54273399	     42.92776852	      0.74923090	     28.63366953	      0.00000000	      0.00000000	     35.12355827	     -5.33569137	     -1.65329574	    123.00372282	      2.14681996	     17.39059286	      0.00000000	      0.00000000	    -29.53803213	      1.30410606	     19.64493214	     12.35619275	    -25.69601107	      5.07185968	    101.06429049	     87.95897018	      0.00000000	      0.00000000	    -15.36377241	    -29.71903822	      8.06558257	     83.41387017	      1.34981038	      0.00000000	      0.00000000
      4.67000000	     -7.16055173	     -0.18215540	    -10.48918645	     -2.03843226	      0.92754493	      0.29559130	     12.30087752	      0.00796584	     -1.49211237	     41.71040459	      0.72798389	     28.47216426	      0.00000000	      0.00000000	     38.52723715	     -4.93655964	     -1.10149749	    123.42618014	      2.15419323	     17.61260768	      0.00000000	      0.00000000	    -28.88222799	      0.66368611	     19.57315374	     14.28792858	    -25.06947442	      6.08396494	    102.17305046	     87.87528929	      0.00000000	      0.00000000	    -17.44044938	    -30.11364771	      6.57006501	     83.45920113	      1.37184616	      0.00000000	      0.00000000
      4.67500000	     -7.32192734	      0.35461610	    -10.22779172	     -2.00935035	      0.92754797	      0.29619491	      9.92272150	     -0.86533384	     -1.55244872	     40.20753595	      0.70175389	     27.94095987	      0.00000000	      0.00000000	     41.77357429	     -4.39553744	     -0.64529335	    123.47385046	      2.15502523	     17.81436344	      0.00000000	      0.00000000	    -28.22531264	     -0.01309283	     19.39033898	     16.02577505	    -24.40113847	      6.98765627	    103.37258204	     87.83812657	      0.00000000	      0.00000000	    -19.69839282	    -30.52134626	      4.94836198	     83.87306387	      1.36605219	      0.00000000	      0.00000000
      4.68000000	     -7.42602538	      0.96028262	     -9.88986938	     -1.97979922	      0.92780521	      0.29671186	      7.37001283	     -1.81922226	     -1.72960979	     38.43370131	      0.67079463	     27.00298563	      0.00000000	      0.00000000	     44.83223554	     -3.69499886	     -0.32609633	    123.14807237	      2.14933933	     18.00082727	      0.00000000	      0.00000000	    -27.57615416	     -0.75676181	     19.08869504	     17.58956004	    -23.68541856	      7.80521970	    104.63263316	     87.78943177	      0.00000000	      0.00000000	    -22.12182142	    -30.93263873	      3.22176458	     84.62281810	      1.35989705	      0.00000000	      0.00000000
      4.68500000	     -7.47275855	      1.65271757	     -9.48073197	     -1.94980485	      0.92832127	      0.29716455	      4.65972684	     -2.85843879	     -2.03324877	     36.40651978	      0.63541364	     25.61466165	      0.00000000	      0.00000000	     47.68113664	     -2.83353493	     -0.17525320	    122.45580547	      2.13725699	     18.17315328	      0.00000000	      0.00000000	    -26.94032585	     -1.59086989	     18.71244310	     18.94570605	    -22.94390781	      8.50508380	    105.96054781	     87.74236873	      0.00000000	      0.00000000	    -24.61949492	    -31.34955742	      1.44841011	     85.63432948	      1.35665712	      0.00000000	      0.00000000
      4.69000000	     -7.48897490	      2.44308001	     -9.02954040	     -1.91942816	      0.92905660	      0.29760998	      1.85023100	     -3.96869436	     -2.43376482	     34.16544856	      0.59629957	     23.74506467	      0.00000000	      0.00000000	     50.33193373	     -1.84576054	     -0.22388086	    121.41260953	      2.11904979	     18.33266114	      0.00000000	      0.00000000	    -26.30533579	     -2.53496927	     18.26528453	     20.12660029	    -22.18194652	      9.11901445	    107.35043313	     87.68952622	      0.00000000	      0.00000000	    -27.20432763	    -31.75823306	     -0.35882789	     86.85987180	      1.35431550	      0.00000000	      0.00000000
      4.69500000	     -7.47728953	      3.33717735	     -8.54784179	     -1.88872624	      0.92999016	      0.29807102	     -1.02513190	     -5.14545858	     -2.93862114	     31.76302632	      0.55436939	     21.37486117	      0.00000000	      0.00000000	     52.77482610	     -0.75576559	     -0.48276067	    120.03139708	      2.09494308	     18.47348067	      0.00000000	      0.00000000	    -25.67696817	     -3.60310710	     17.79742813	     21.11270833	    -21.44023689	      9.65032331	    108.79567967	     87.64230136	      0.00000000	      0.00000000	    -29.78970492	    -32.18092011	     -2.14179697	     88.25100810	      1.34381568	      0.00000000	      0.00000000
      4.70000000	     -7.46797253	      4.32321782	     -8.06195223	     -1.85777118	      0.93107366	      0.29858201	     -3.89458178	     -6.35999080	     -3.52279656	     29.26837787	      0.51082956	     18.50104098	      0.00000000	      0.00000000	     55.03315575	      0.38304417	     -0.94562884	    118.33132785	      2.06527128	     18.58858604	      0.00000000	      0.00000000	    -25.04077812	     -4.78825476	     17.34178665	     21.90523968	    -20.73038772	     10.11431652	    110.31378488	     87.60651682	      0.00000000	      0.00000000	    -32.35206642	    -32.60507419	     -3.89904502	     89.73761884	      1.34146049	      0.00000000	      0.00000000
      4.70500000	     -7.48392443	      5.38149330	     -7.59307707	     -1.82663587	      0.93225459	      0.29915703	     -6.68483501	     -7.58667790	     -4.16325572	     26.77588496	      0.46732735	     15.15025003	      0.00000000	      0.00000000	     57.12463097	      1.51765454	     -1.58686733	    116.33596978	      2.03044571	     18.68967532	      0.00000000	      0.00000000	    -24.38926612	     -6.07650412	     16.95958620	     22.48623699	    -20.07813720	     10.45618716	    111.92620341	     87.59209879	      0.00000000	      0.00000000	    -34.82388915	    -33.01370585	     -5.60851362	     91.26282561	      1.33735866	      0.00000000	      0.00000000
      4.71000000	     -7.54017463	      6.47871628	     -7.15898700	     -1.79539151	      0.93349620	      0.29980080	     -9.33208891	     -8.79294467	     -4.83282256	     24.38035975	      0.42551755	     11.38725179	      0.00000000	      0.00000000	     59.05904760	      2.59385440	     -2.37151133	    114.06766926	      1.99085640	     18.77530335	      0.00000000	      0.00000000	    -23.70710649	     -7.42925703	     16.53719793	     23.05777055	    -19.49299251	     11.00689628	    113.45086467	     87.57225585	      0.00000000	      0.00000000	    -37.37932080	    -33.35476290	     -7.36379768	     92.87846635	      1.33545015	      0.00000000	      0.00000000
      4.71500000	     -7.65927009	      7.56720606	     -6.77203046	     -1.76408296	      0.93477854	      0.30051899	    -11.77111993	     -9.93198030	     -5.48590683	     22.16241213	      0.38680706	      7.30047835	      0.00000000	      0.00000000	     60.84759248	      3.55700913	     -3.24609954	    111.54742488	      1.94686984	     18.85972400	      0.00000000	      0.00000000	    -22.98754885	     -8.80186502	     16.24651368	     23.43706161	    -18.99303750	     11.48060851	    115.03842798	     87.56214660	      0.00000000	      0.00000000	    -39.80103812	    -33.65469658	     -9.03673480	     94.45827698	      1.32884972	      0.00000000	      0.00000000
      4.72000000	     -7.83831248	      8.60080395	     -6.43135145	     -1.73273348	      0.93610690	      0.30129667	    -13.97719799	    -10.96584119	     -6.08988922	     20.18247031	      0.35225056	      3.00965074	      0.00000000	      0.00000000	     62.47292088	      4.37810570	     -4.15462201	    108.79314728	      1.89879862	     18.95970423	      0.00000000	      0.00000000	    -22.23487498	    -10.14205118	     16.07150315	     23.67652787	    -18.60018285	     11.96730147	    116.62080976	     87.57244798	      0.00000000	      0.00000000	    -42.09677400	    -33.89013971	    -10.63018615	     95.97973446	      1.32830585	      0.00000000	      0.00000000
